<svg width="55" height="57" viewBox="0 0 55 57" fill="none" xmlns="http://www.w3.org/2000/svg">
<g clip-path="url(#clip0_171_143)">
<path d="M39.71 52.5898H39.03C38.89 52.5898 38.79 52.6198 38.72 52.6798C38.65 52.7398 38.63 52.8398 38.63 52.9898V53.7798C38.63 53.9198 38.66 54.0198 38.72 54.0898C38.78 54.1498 38.89 54.1798 39.03 54.1798H39.71C39.85 54.1798 39.95 54.1498 40.01 54.0898C40.07 54.0298 40.11 53.9298 40.11 53.7798V52.9898C40.11 52.8498 40.08 52.7498 40.01 52.6798C39.95 52.6198 39.84 52.5898 39.71 52.5898Z" fill="#754C29"/>
<path d="M31 52.6099H30.48C30.26 52.6099 30.15 52.7199 30.15 52.9299C30.15 53.1399 30.26 53.2499 30.48 53.2499H31C31.11 53.2499 31.19 53.2199 31.25 53.1699C31.31 53.1199 31.34 53.0399 31.34 52.9299C31.34 52.8199 31.31 52.7499 31.25 52.6899C31.19 52.6299 31.11 52.6099 31 52.6099Z" fill="#754C29"/>
<path d="M5 49.95V56.83H50.01V49.95H5ZM9.61 52.61C9.61 52.61 9.6 52.65 9.57 52.65H8.96C8.84 52.65 8.76 52.67 8.71 52.72C8.66 52.77 8.64 52.85 8.64 52.97V54.58C8.64 54.58 8.63 54.6199 8.6 54.6199H7.81C7.81 54.6199 7.77 54.61 7.77 54.58V52.97C7.77 52.85 7.75 52.77 7.7 52.72C7.65 52.67 7.57 52.65 7.45 52.65H6.84C6.84 52.65 6.8 52.64 6.8 52.61V52.1899C6.8 52.1899 6.81 52.15 6.84 52.15H9.58C9.58 52.15 9.62 52.1599 9.62 52.1899V52.61H9.61ZM12.74 53.5499C12.82 53.5799 12.88 53.63 12.92 53.7C12.96 53.77 12.99 53.84 13 53.91C13.01 53.98 13.02 54.07 13.02 54.18V54.59C13.02 54.59 13.01 54.63 12.98 54.63H12.13C12.13 54.63 12.09 54.62 12.09 54.59V54.04C12.09 53.92 12.07 53.8299 12.02 53.7799C11.97 53.7299 11.89 53.7099 11.76 53.7099H11.26C11.13 53.7099 11.04 53.7299 10.99 53.7799C10.94 53.8299 10.92 53.92 10.92 54.04V54.59C10.92 54.59 10.91 54.63 10.88 54.63H10.09C10.09 54.63 10.05 54.62 10.05 54.59V52.2C10.05 52.2 10.06 52.16 10.09 52.16H12.01C12.37 52.16 12.63 52.21 12.79 52.31C12.95 52.41 13.03 52.5999 13.03 52.8699C13.03 53.2899 12.83 53.49 12.43 53.49V53.5099C12.56 53.5099 12.67 53.53 12.75 53.56L12.74 53.5499ZM16.57 54.58C16.57 54.58 16.56 54.6199 16.53 54.6199H14.74C14.4 54.6199 14.14 54.59 13.97 54.54C13.8 54.49 13.68 54.4 13.62 54.27C13.56 54.15 13.52 53.9599 13.52 53.7099V52.18C13.52 52.18 13.53 52.1399 13.56 52.1399H14.35C14.35 52.1399 14.39 52.15 14.39 52.18V53.7099C14.39 53.8499 14.42 53.96 14.47 54.02C14.52 54.08 14.62 54.11 14.75 54.11H15.67C15.67 54.11 15.69 54.11 15.69 54.09V52.1699C15.69 52.1699 15.7 52.13 15.73 52.13H16.52C16.52 52.13 16.56 52.1399 16.56 52.1699V54.56L16.57 54.58ZM20.07 52.61C20.07 52.61 20.06 52.65 20.03 52.65H18.45C18.31 52.65 18.21 52.67 18.16 52.7C18.11 52.73 18.08 52.8 18.08 52.9C18.08 53 18.1 53.06 18.15 53.09C18.2 53.12 18.3 53.13 18.44 53.13H19.98C19.98 53.13 20.02 53.1399 20.02 53.1699V53.57C20.02 53.57 20.01 53.61 19.98 53.61H18.44C18.29 53.61 18.2 53.63 18.15 53.66C18.1 53.69 18.08 53.76 18.08 53.86C18.08 53.96 18.11 54.03 18.16 54.06C18.21 54.1 18.31 54.11 18.45 54.11H20.03C20.03 54.11 20.07 54.12 20.07 54.15V54.57C20.07 54.57 20.06 54.61 20.03 54.61H18.3C18.06 54.61 17.86 54.59 17.71 54.56C17.56 54.53 17.44 54.4699 17.36 54.3899C17.28 54.3099 17.22 54.22 17.2 54.11C17.18 54 17.16 53.87 17.16 53.7V53.0299C17.16 52.8599 17.17 52.7299 17.2 52.6199C17.23 52.5099 17.28 52.42 17.36 52.34C17.44 52.26 17.56 52.1999 17.71 52.1699C17.86 52.1399 18.06 52.1199 18.3 52.1199H20.03C20.03 52.1199 20.07 52.13 20.07 52.16V52.58V52.61ZM24.87 54.58C24.87 54.58 24.86 54.6199 24.83 54.6199H24.04C24.04 54.6199 24 54.61 24 54.58V53.97C24 53.85 23.98 53.7599 23.94 53.7099C23.9 53.6599 23.82 53.6399 23.71 53.6399H22.9C22.79 53.6399 22.71 53.6599 22.67 53.7099C22.63 53.7599 22.61 53.85 22.61 53.97V54.58C22.61 54.58 22.6 54.6199 22.57 54.6199H21.78C21.78 54.6199 21.74 54.61 21.74 54.58V52.1899C21.74 52.1899 21.75 52.15 21.78 52.15H22.57C22.57 52.15 22.61 52.1599 22.61 52.1899V52.79C22.61 52.92 22.63 52.9999 22.67 53.0499C22.71 53.0999 22.79 53.1199 22.9 53.1199H23.71C23.82 53.1199 23.9 53.0999 23.94 53.0499C23.98 52.9999 24 52.91 24 52.79V52.1899C24 52.1899 24.01 52.15 24.04 52.15H24.83C24.83 52.15 24.87 52.1599 24.87 52.1899V54.58ZM28.72 53.7799C28.72 53.9499 28.71 54.0899 28.68 54.1899C28.65 54.2899 28.59 54.3799 28.5 54.4599C28.41 54.5399 28.28 54.6 28.12 54.63C27.95 54.66 27.73 54.68 27.46 54.68H26.71C26.44 54.68 26.22 54.66 26.05 54.63C25.88 54.6 25.76 54.5399 25.67 54.4599C25.58 54.3799 25.52 54.2899 25.49 54.1899C25.46 54.0899 25.45 53.9499 25.45 53.7799V52.99C25.45 52.82 25.46 52.68 25.49 52.58C25.52 52.48 25.58 52.39 25.67 52.31C25.76 52.23 25.89 52.1699 26.05 52.1399C26.22 52.1099 26.44 52.09 26.71 52.09H27.46C27.73 52.09 27.95 52.1099 28.12 52.1399C28.29 52.1699 28.41 52.23 28.5 52.31C28.59 52.39 28.65 52.48 28.68 52.58C28.71 52.68 28.72 52.82 28.72 52.99V53.7799ZM31.99 53.5499C32.07 53.5799 32.13 53.63 32.17 53.7C32.21 53.77 32.24 53.84 32.25 53.91C32.26 53.98 32.27 54.07 32.27 54.18V54.59C32.27 54.59 32.26 54.63 32.23 54.63H31.38C31.38 54.63 31.34 54.62 31.34 54.59V54.04C31.34 53.92 31.32 53.8299 31.27 53.7799C31.22 53.7299 31.14 53.7099 31.01 53.7099H30.51C30.38 53.7099 30.29 53.7299 30.24 53.7799C30.19 53.8299 30.17 53.92 30.17 54.04V54.59C30.17 54.59 30.16 54.63 30.13 54.63H29.34C29.34 54.63 29.3 54.62 29.3 54.59V52.2C29.3 52.2 29.31 52.16 29.34 52.16H31.26C31.62 52.16 31.88 52.21 32.04 52.31C32.2 52.41 32.28 52.5999 32.28 52.8699C32.28 53.2899 32.08 53.49 31.68 53.49V53.5099C31.81 53.5099 31.92 53.53 32 53.56L31.99 53.5499ZM33.72 54.58C33.72 54.58 33.71 54.6199 33.68 54.6199H32.89C32.89 54.6199 32.85 54.61 32.85 54.58V52.1899C32.85 52.1899 32.86 52.15 32.89 52.15H33.68C33.68 52.15 33.72 52.1599 33.72 52.1899V54.58ZM37.23 54.58C37.23 54.58 37.22 54.6199 37.19 54.6199H34.32C34.32 54.6199 34.28 54.61 34.28 54.58V53.9399C34.28 53.7099 34.33 53.5399 34.42 53.4399C34.51 53.3399 34.68 53.27 34.93 53.24L36.04 53.09C36.17 53.07 36.26 53.04 36.31 53C36.36 52.96 36.39 52.9 36.39 52.82C36.39 52.74 36.37 52.68 36.34 52.65C36.3 52.62 36.24 52.5999 36.14 52.5999H35.55C35.4 52.5999 35.3 52.62 35.26 52.66C35.21 52.7 35.19 52.7899 35.19 52.9199V52.9399C35.19 52.9399 35.19 52.9599 35.17 52.9599H34.37C34.37 52.9599 34.33 52.9499 34.33 52.9199V52.18C34.33 52.18 34.34 52.1399 34.37 52.1399H37.18C37.18 52.1399 37.22 52.15 37.22 52.18V52.7999C37.22 53.0199 37.17 53.1899 37.07 53.2999C36.97 53.4099 36.78 53.48 36.51 53.52L35.43 53.6699C35.29 53.6899 35.2 53.72 35.16 53.75C35.12 53.79 35.1 53.8499 35.1 53.9399C35.1 54.0899 35.18 54.1699 35.34 54.1699H36.1C36.22 54.1699 36.3 54.1499 36.33 54.0999C36.36 54.0499 36.38 53.97 36.38 53.84V53.82C36.38 53.82 36.38 53.7999 36.4 53.7999H37.2C37.2 53.7999 37.24 53.81 37.24 53.84V54.58H37.23ZM41.01 53.7799C41.01 53.9499 41 54.0899 40.97 54.1899C40.94 54.2899 40.88 54.3799 40.79 54.4599C40.7 54.5399 40.57 54.6 40.41 54.63C40.24 54.66 40.02 54.68 39.75 54.68H39C38.73 54.68 38.51 54.66 38.34 54.63C38.17 54.6 38.05 54.5399 37.96 54.4599C37.87 54.3799 37.81 54.2899 37.78 54.1899C37.75 54.0899 37.74 53.9499 37.74 53.7799V52.99C37.74 52.82 37.75 52.68 37.78 52.58C37.81 52.48 37.87 52.39 37.96 52.31C38.05 52.23 38.18 52.1699 38.34 52.1399C38.51 52.1099 38.73 52.09 39 52.09H39.75C40.02 52.09 40.24 52.1099 40.41 52.1399C40.58 52.1699 40.7 52.23 40.79 52.31C40.88 52.39 40.94 52.48 40.97 52.58C41 52.68 41.01 52.82 41.01 52.99V53.7799ZM44.63 54.58C44.63 54.58 44.62 54.6199 44.59 54.6199H43.8C43.8 54.6199 43.76 54.61 43.76 54.58V53.0499C43.76 52.9099 43.73 52.8 43.68 52.74C43.63 52.68 43.53 52.65 43.4 52.65H42.48C42.48 52.65 42.46 52.6499 42.46 52.6699V54.59C42.46 54.59 42.45 54.63 42.42 54.63H41.63C41.63 54.63 41.59 54.62 41.59 54.59V52.2C41.59 52.2 41.6 52.16 41.63 52.16H43.42C43.76 52.16 44.02 52.19 44.19 52.24C44.36 52.29 44.48 52.3799 44.54 52.5099C44.6 52.6299 44.64 52.82 44.64 53.07V54.5999L44.63 54.58ZM48 54.5299C47.85 54.6399 47.6 54.6899 47.24 54.6899H45.84C45.57 54.6899 45.39 54.64 45.28 54.54C45.17 54.44 45.13 54.29 45.13 54.09V53.91C45.13 53.91 45.14 53.8699 45.17 53.8699H45.98C45.98 53.8699 46.02 53.88 46.02 53.91C46.02 54.02 46.05 54.0999 46.09 54.1399C46.13 54.1799 46.21 54.2 46.32 54.2H46.98C47.2 54.2 47.31 54.1099 47.31 53.9199C47.31 53.7299 47.2 53.6399 46.98 53.6399H45.96C45.68 53.6399 45.47 53.5799 45.34 53.4599C45.21 53.3399 45.14 53.1399 45.14 52.8699C45.14 52.5999 45.22 52.3999 45.37 52.2799C45.52 52.1599 45.76 52.09 46.07 52.09H47.42C47.7 52.09 47.88 52.14 47.98 52.24C48.08 52.34 48.13 52.51 48.13 52.74V52.8699C48.13 52.8699 48.12 52.91 48.09 52.91H47.3C47.3 52.91 47.26 52.8999 47.26 52.8699C47.26 52.7599 47.23 52.6799 47.19 52.6399C47.15 52.5999 47.07 52.58 46.96 52.58H46.39C46.27 52.58 46.18 52.6 46.12 52.65C46.06 52.7 46.03 52.77 46.03 52.88C46.03 53.07 46.15 53.1699 46.38 53.1699H47.27C47.6 53.1699 47.84 53.22 47.99 53.33C48.13 53.44 48.21 53.6399 48.21 53.9199C48.21 54.2199 48.14 54.4299 47.99 54.5299H48Z" fill="#754C29"/>
<path d="M11.75 52.6099H11.23C11.01 52.6099 10.9 52.7199 10.9 52.9299C10.9 53.1399 11.01 53.2499 11.23 53.2499H11.75C11.86 53.2499 11.94 53.2199 12 53.1699C12.06 53.1199 12.09 53.0399 12.09 52.9299C12.09 52.8199 12.06 52.7499 12 52.6899C11.94 52.6299 11.86 52.6099 11.75 52.6099Z" fill="#754C29"/>
<path d="M27.42 52.5898H26.74C26.6 52.5898 26.5 52.6198 26.43 52.6798C26.36 52.7398 26.34 52.8398 26.34 52.9898V53.7798C26.34 53.9198 26.37 54.0198 26.43 54.0898C26.49 54.1498 26.6 54.1798 26.74 54.1798H27.42C27.56 54.1798 27.66 54.1498 27.72 54.0898C27.78 54.0298 27.82 53.9298 27.82 53.7798V52.9898C27.82 52.8498 27.79 52.7498 27.72 52.6798C27.66 52.6198 27.55 52.5898 27.42 52.5898Z" fill="#754C29"/>
<path d="M13.21 25.78C12.54 25.84 12.12 26.44 12.1 27.22L14.43 27.02C14.27 26.26 13.81 25.73 13.21 25.79V25.78Z" fill="#754C29"/>
<path d="M6.04001 37.54L8.00001 37.8L7.46001 34.23L6.04001 37.54Z" fill="#754C29"/>
<path d="M19.83 26.5499C19.08 26.6199 18.74 26.9399 18.79 27.5499C18.84 28.0699 19.32 28.3699 19.85 28.3199C20.24 28.2899 20.55 28.1099 20.76 27.8099L20.68 26.8699C20.53 26.6599 20.19 26.5199 19.83 26.5499Z" fill="#754C29"/>
<path d="M23.71 37.0701C23.04 37.1001 22.59 37.6801 22.54 38.4601L24.87 38.3601C24.74 37.5901 24.31 37.0501 23.7 37.0701H23.71Z" fill="#754C29"/>
<path d="M55 38.73C55 38.44 54.97 38.12 54.9 37.66C54.68 36 54.08 34.7 53.11 33.78C53.07 33.74 53.03 33.72 52.99 33.68H53.07L54.43 16.18L41.22 19.94V21.97H34.91V12.03H30.15L27.79 0L25.42 12.03H20.66V19.33H16.87L17.17 17.3C17.17 17.3 11.53 17.19 9.59001 18.65C6.96001 20.29 5.27001 23.09 5.11001 26.22C5.08001 26.76 5.03001 27.88 3.71001 27.86L1.60001 27.79L0.480011 34.14L3.44001 34.28C3.44001 34.28 3.48001 34.28 3.50001 34.28L-0.019989 42.19L10.77 43.61L11 46.28L17.38 45.72L17.26 44.33H21.74C22.37 44.62 23.08 44.79 23.87 44.79C23.96 44.79 24.05 44.79 24.15 44.79C24.94 44.76 25.64 44.57 26.27 44.24C27.2 45.62 28.65 46.45 30.4 46.45C30.48 46.45 30.56 46.45 30.65 46.45C32.3 46.38 33.58 45.65 34.58 44.22C34.62 44.22 34.65 44.23 34.68 44.24C34.78 44.24 34.87 44.24 34.97 44.24C35.13 44.24 35.29 44.23 35.44 44.22V46.01H41.2L41.43 46.63L46.71 46.17L47.23 43.51C47.99 43.99 48.89 44.24 49.86 44.24C50.11 44.24 50.37 44.22 50.63 44.19C52.27 43.97 53.64 43.08 54.32 41.69C55 40.3 54.99 39.43 54.99 38.74L55 38.73ZM50.38 22.26L51.91 21.69L51.09 31.01L49.62 30.88L50.37 22.26H50.38ZM35 27.33C35 29.27 33.91 30.79 32.29 30.79C30.67 30.79 29.58 29.28 29.58 27.33C29.58 25.38 30.67 23.88 32.29 23.88C33.91 23.88 35 25.39 35 27.33ZM25.44 15.83L25.73 16.12L25.98 15.87L25.69 15.58C26.18 15.14 26.81 14.85 27.51 14.8V15.52H28.01V14.8C28.71 14.86 29.34 15.14 29.83 15.58L29.54 15.87L29.79 16.12L30.07 15.84C30.49 16.32 30.77 16.94 30.82 17.62H30.11V18.12H30.82C30.76 18.82 30.48 19.45 30.04 19.94L29.79 19.69L29.54 19.94L29.78 20.18C29.3 20.6 28.68 20.88 28 20.93V20.22H27.5V20.93C26.82 20.87 26.21 20.6 25.72 20.18L25.97 19.93L25.72 19.68L25.47 19.93C25.03 19.44 24.74 18.81 24.69 18.11H25.41V17.61H24.69C24.75 16.93 25.02 16.32 25.44 15.83ZM8.46001 41L8.22001 39.36L5.44001 38.99L4.79001 40.52L3.15001 40.3L6.77001 32.14L8.71001 32.4L10.1 41.22L8.46001 41ZM8.78001 26.34C8.54001 30.88 5.10001 31.69 4.05001 31.82C3.80001 31.85 3.43001 31.83 3.16001 31.82C3.09001 31.82 3.03001 31.82 2.98001 31.82H2.92001L3.20001 30.28H3.24001C3.62001 30.29 6.97001 30.29 7.18001 26.26C7.31001 23.87 8.48001 21.87 10.47 20.63C11.5 19.99 12.99 19.67 14.66 19.72C14.7 19.72 14.72 19.72 14.73 19.72H14.79L14.78 19.78L14.54 21.18H14.5C14.5 21.18 14.5 21.18 14.48 21.18C14.04 21.2 12.5 21.31 11.24 22.01C9.74001 22.85 8.86001 24.38 8.76001 26.34H8.78001ZM14.48 43.65L12.96 43.78L12.51 38.65L11.88 38.71L11.75 37.2L12.38 37.14L12.36 36.94C12.24 35.56 12.87 34.8 14.05 34.7C14.38 34.67 14.6 34.7 14.81 34.74L14.93 36.14C14.75 36.1 14.58 36.08 14.33 36.1C13.87 36.14 13.76 36.38 13.79 36.82L13.81 37.02L15.01 36.92L15.14 38.43L14.02 38.53L14.47 43.66L14.48 43.65ZM16.05 28.36L12.24 28.69C12.39 29.35 13.03 29.66 13.59 29.61C13.98 29.58 14.28 29.44 14.52 29.05L15.64 29.93C15.12 30.74 14.53 31.08 13.68 31.16C11.91 31.31 10.83 30.24 10.64 28.06C10.44 25.83 11.45 24.42 13.1 24.28C14.67 24.14 15.82 25.15 16.02 27.44C16.07 27.97 16.08 28.22 16.05 28.36ZM19.96 36.86H18.84V42.01H17.31V36.86H16.68V35.35H17.31V35.15C17.31 33.77 18 33.06 19.19 33.06C19.52 33.06 19.74 33.11 19.94 33.17V34.58C19.76 34.52 19.59 34.48 19.34 34.48C18.87 34.48 18.74 34.71 18.74 35.15V35.35H19.94V36.86H19.96ZM20.91 29.35C20.66 29.65 20.19 29.9 19.63 29.95C18.44 30.05 17.4 29.19 17.27 27.71C17.13 26.15 18.02 25.3 19.44 25.17C19.82 25.14 20.23 25.15 20.57 25.35C20.41 24.73 20.09 24.52 19.48 24.57C18.99 24.61 18.69 24.82 18.38 25.13L17.59 24.01C18.01 23.46 18.67 23.09 19.44 23.02C20.91 22.89 21.95 23.79 22.08 25.33L22.45 29.57L20.93 29.7L20.9 29.33L20.91 29.35ZM26.43 39.78L22.61 39.95C22.73 40.61 23.36 40.96 23.92 40.93C24.31 40.91 24.62 40.79 24.88 40.41L25.96 41.34C25.41 42.13 24.8 42.44 23.94 42.48C22.16 42.56 21.14 41.43 21.04 39.25C20.94 37.01 22 35.65 23.66 35.58C25.23 35.51 26.34 36.57 26.44 38.86C26.46 39.4 26.46 39.65 26.44 39.78H26.43ZM25.75 32.34C25.13 32.34 24.35 32.2 23.69 31.73L24.21 30.35C24.53 30.58 25.12 30.8 25.78 30.8C26.54 30.8 26.85 30.53 26.85 30.14C26.85 29.84 26.62 29.66 26.1 29.52C24.66 29.14 23.73 28.78 23.73 27.5C23.73 26.06 24.79 25.46 26.22 25.46C26.92 25.46 27.54 25.65 28.08 26.04L27.64 27.53C27.08 27.16 26.64 27.02 26.1 27.02C25.47 27.02 25.29 27.19 25.29 27.43C25.29 27.93 26.43 28 27.05 28.22C27.86 28.54 28.36 29.09 28.36 30.14C28.36 31.75 27.22 32.33 25.74 32.33L25.75 32.34ZM30.52 44.16C28.77 44.24 27.67 42.9 27.58 40.78C27.49 38.83 28.56 37.34 30.22 37.26C31.17 37.22 31.76 37.57 32.2 38.14L31.08 39.19C30.89 38.91 30.67 38.79 30.29 38.81C29.53 38.84 29.09 39.58 29.14 40.72C29.19 41.97 29.59 42.63 30.45 42.6C30.77 42.59 31.06 42.43 31.31 42.12L32.59 42.95C32.01 43.79 31.39 44.12 30.52 44.16ZM35.84 41.77C35.68 41.86 35.39 41.94 34.83 41.92C33.77 41.87 33.22 41.07 33.27 39.92L33.42 36.58L32.74 36.55L32.81 35.04L33.49 35.07L33.54 33.83L35.08 33.24L35 35.13L36.14 35.18L36.07 36.69L34.93 36.64L34.79 39.77C34.77 40.21 34.98 40.37 35.35 40.39C35.62 40.4 35.91 40.3 36.15 40.11L35.84 41.76V41.77ZM39.51 43.71H37.97V37.04H39.51V43.71ZM38.75 36.68C38.23 36.68 37.91 36.27 37.91 35.71C37.91 35.15 38.22 34.72 38.75 34.72C39.19 34.72 39.57 35.14 39.57 35.71C39.57 36.28 39.18 36.68 38.75 36.68ZM38.83 26.99C38.37 26.97 38 27.24 37.85 27.66L37.65 32.19L36.11 32.12L36.4 25.46L37.94 25.53L37.92 26.02C38.27 25.63 38.73 25.45 39.32 25.47C40.8 25.53 41.37 26.56 41.31 28.05L41.12 32.34L39.6 32.27L39.78 28.1C39.81 27.52 39.54 27.02 38.84 26.98L38.83 26.99ZM44.83 44.04L43.21 44.18L40.74 37.7L42.37 37.56L43.81 41.71L44.54 37.37L46.16 37.23L44.83 44.04ZM46.11 30.68L46.14 30.29C45.85 30.56 45.36 30.74 44.82 30.69C43.67 30.59 42.83 29.5 42.96 27.95C43.1 26.31 44.09 25.57 45.47 25.69C45.84 25.72 46.22 25.81 46.51 26.07C46.46 25.4 46.2 25.12 45.61 25.07C45.14 25.03 44.81 25.19 44.46 25.46L43.9 24.16C44.4 23.66 45.09 23.39 45.84 23.46C47.26 23.58 48.09 24.71 47.95 26.33L47.56 30.81L46.09 30.68H46.11ZM52.81 38.97L49.02 39.47C49.2 40.12 49.85 40.41 50.41 40.33C50.8 40.28 51.09 40.13 51.32 39.73L52.48 40.56C52 41.39 51.42 41.76 50.57 41.87C48.81 42.1 47.69 41.07 47.4 38.91C47.11 36.69 48.05 35.24 49.69 35.02C51.25 34.81 52.45 35.78 52.75 38.05C52.82 38.58 52.84 38.83 52.82 38.97H52.81Z" fill="#754C29"/>
<path d="M45.6 27.18C44.88 27.12 44.49 27.4 44.44 28.04C44.39 28.59 44.8 28.98 45.31 29.03C45.69 29.06 46.01 28.94 46.27 28.66L46.36 27.67C46.25 27.42 45.96 27.22 45.6 27.19V27.18Z" fill="#754C29"/>
<path d="M32.3 29.2C33.06 29.2 33.49 28.44 33.49 27.33C33.49 26.22 33.06 25.47 32.3 25.47C31.54 25.47 31.11 26.22 31.11 27.33C31.11 28.44 31.54 29.2 32.3 29.2Z" fill="#754C29"/>
<path d="M49.87 36.5101C49.21 36.6001 48.81 37.2201 48.83 37.9901L51.15 37.6801C50.95 36.9201 50.48 36.4201 49.88 36.5001L49.87 36.5101Z" fill="#754C29"/>
<path d="M26.32 19.32L28.14 18.12L27.52 17.5L26.32 19.32Z" fill="#754C29"/>
</g>
<defs>
<clipPath id="clip0_171_143">
<rect width="55" height="56.83" fill="white"/>
</clipPath>
</defs>
</svg>
